{"title":"[ShepardTDS] One-Punch Man [720p 8-bit x265 HEVC] 1-12","uid":13227899,"size":2024718788,"categoryP":"video","categoryS":"tv_shows","magnet":"?xt=urn:btih:40cff882a1bb46d2d3f2f9b4ee563263f2fae29b&amp;dn=%5BShepardTDS%5D+One-Punch+Man+%5B720p+8-bit+x265+HEVC%5D+1-12&amp;tr=udp%3A%2F%2Ftracker.leechers-paradise.org%3A6969&amp;tr=udp%3A%2F%2Fzer0day.ch%3A1337&amp;tr=udp%3A%2F%2Fopen.demonii.com%3A1337&amp;tr=udp%3A%2F%2Ftracker.coppersurfer.tk%3A6969&amp;tr=udp%3A%2F%2Fexodus.desync.com%3A6969","seeders":1,"leechers":0,"uploader":"ShepardTDS","files":13,"time":1452894502,"description":"http://extraimago.com/images/2016/01/15/CTm9x4XU8AEUL4T.jpglarge.jpg\r\n\r\nConstant Quality encoding.\r\nVariable Bit rates\r\nHorribleSubs Source\r\n \nhttp://extraimago.com/images/2016/01/15/sample1.jpg\r\n \nhttp://extraimago.com/images/2016/01/15/sample2.jpg\r\n\r\nGeneral\r\n\r\nFormat : Matroska\r\nFile size : 128 MiB-192 MiB\r\nDuration : 24mn 25s\r\nOverall bit rate : 731 Kbps-1,097 Kbps\r\nEncoded date : UTC 2016-01-14 03:11:23\r\nWriting application : mkvmerge v8.5.2 ('Crosses') 32bit\r\nWriting library : libebml v1.3.3 + libmatroska v1.4.4\r\n\r\nVideo\r\nID : 1\r\nFormat : V_MPEGH/ISO/HEVC\r\nCodec ID : V_MPEGH/ISO/HEVC\r\nDuration : 24mn 25s\r\nBit rate : 524 Kbps-883 Kbps\r\nWidth : 1 280 pixels\r\nHeight : 720 pixels\r\nDisplay aspect ratio : 16:9\r\nFrame rate : 23.976 fps\r\nBits/(Pixel*Frame) : 0.024\r\nStream size : 91.5 MiB (72%)\r\n\r\nAudio\r\nID : 2\r\nFormat : AC-3\r\nFormat/Info : Audio Coding 3\r\nMode extension : CM (complete main)\r\nCodec ID : A_AC3\r\nDuration : 24mn 25s\r\nBit rate mode : Constant\r\nBit rate : 192 Kbps\r\nChannel(s) : 2 channels\r\nChannel positions : Front: L R\r\nSampling rate : 48.0 KHz\r\nBit depth : 16 bits\r\nCompression mode : Lossy\r\nStream size : 33.5 MiB (26%)\r\nLanguage : Japanese\r\n\r\nText\r\nID : 3\r\nFormat : ASS\r\nCodec ID : S_TEXT/ASS\r\nCodec ID/Info : Advanced Sub Station Alpha\r\nCompression mode : Lossless\r\nLanguage : English","torrent":{"xt":"urn:btih:40cff882a1bb46d2d3f2f9b4ee563263f2fae29b","amp;dn":"%5BShepardTDS%5D+One-Punch+Man+%5B720p+8-bit+x265+HEVC%5D+1-12","amp;tr":["udp%3A%2F%2Ftracker.leechers-paradise.org%3A6969","udp%3A%2F%2Fzer0day.ch%3A1337","udp%3A%2F%2Fopen.demonii.com%3A1337","udp%3A%2F%2Ftracker.coppersurfer.tk%3A6969","udp%3A%2F%2Fexodus.desync.com%3A6969"],"infoHash":"40cff882a1bb46d2d3f2f9b4ee563263f2fae29b","infoHashBuffer":{"type":"Buffer","data":[64,207,248,130,161,187,70,210,211,242,249,180,238,86,50,99,242,250,226,155]},"announce":[],"urlList":[]}}